<?xml version="1.0" encoding="utf-8"?>
<!-- Generator: Adobe Illustrator 22.0.0, SVG Export Plug-In . SVG Version: 6.00 Build 0)  -->
<svg version="1.1" id="Capa_1" xmlns="http://www.w3.org/2000/svg" xmlns:xlink="http://www.w3.org/1999/xlink" x="0px" y="0px"
	 viewBox="0 0 58 58" style="enable-background:new 0 0 58 58;" xml:space="preserve">
<style type="text/css">
	.st0{fill:#F0C41B;}
	.st1{fill:#806F5E;}
	.st2{fill:#F9EAB0;}
	.st3{fill:#DB2215;}
	.st4{fill:#245EA9;}
</style>
<g id="XMLID_69_">
	<path id="XMLID_115_" class="st0" d="M54.8,50H3.2C1.4,50,0,48.6,0,46.8V11.2C0,9.4,1.4,8,3.2,8h51.6c1.8,0,3.2,1.4,3.2,3.2v35.6
		C58,48.6,56.6,50,54.8,50"/>
	<rect id="XMLID_114_" y="13" class="st1" width="58" height="8"/>
	<path id="XMLID_113_" class="st2" d="M15,28H6c-0.6,0-1-0.4-1-1s0.4-1,1-1h9c0.6,0,1,0.4,1,1S15.6,28,15,28"/>
	<path id="XMLID_112_" class="st2" d="M28,28h-9c-0.6,0-1-0.4-1-1s0.4-1,1-1h9c0.6,0,1,0.4,1,1S28.6,28,28,28"/>
	<path id="XMLID_111_" class="st2" d="M7,33H6c-0.6,0-1-0.4-1-1s0.4-1,1-1h1c0.6,0,1,0.4,1,1C8,32.6,7.6,33,7,33"/>
	<path id="XMLID_110_" class="st2" d="M13,33h-2c-0.6,0-1-0.4-1-1s0.4-1,1-1h2c0.6,0,1,0.4,1,1C14,32.6,13.6,33,13,33"/>
	<path id="XMLID_109_" class="st2" d="M18,33h-1c-0.6,0-1-0.4-1-1s0.4-1,1-1h1c0.6,0,1,0.4,1,1C19,32.6,18.6,33,18,33"/>
	<path id="XMLID_108_" class="st2" d="M24,33h-2c-0.6,0-1-0.4-1-1s0.4-1,1-1h2c0.6,0,1,0.4,1,1C25,32.6,24.6,33,24,33"/>
	<path id="XMLID_107_" class="st2" d="M28,33c-0.3,0-0.5-0.1-0.7-0.3C27.1,32.5,27,32.3,27,32c0-0.3,0.1-0.5,0.3-0.7
		c0.4-0.4,1-0.4,1.4,0c0.2,0.2,0.3,0.4,0.3,0.7c0,0.3-0.1,0.5-0.3,0.7C28.5,32.9,28.3,33,28,33"/>
	<path id="XMLID_106_" class="st3" d="M46,39c0,3.3-2.7,6-6,6s-6-2.7-6-6s2.7-6,6-6S46,35.7,46,39"/>
	<path id="XMLID_105_" class="st4" d="M53,39c0,3.3-2.7,6-6,6s-6-2.7-6-6s2.7-6,6-6S53,35.7,53,39"/>
</g>
</svg>
