<?xml version="1.0" standalone="no"?>
<!DOCTYPE svg PUBLIC "-//W3C//DTD SVG 1.1//EN" "http://www.w3.org/Graphics/SVG/1.1/DTD/svg11.dtd">
<svg xmlns="http://www.w3.org/2000/svg">
<metadata>Copyright (C) 2019 by original authors @ fontello.com</metadata>
<defs>
<font id="fontello" horiz-adv-x="1000" >
<font-face font-family="fontello" font-weight="400" font-stretch="normal" units-per-em="1000" ascent="850" descent="-150" />
<missing-glyph horiz-adv-x="1000" />
<glyph glyph-name="icon8" unicode="&#xe800;" d="M24 842l-16-16a27 27 0 0 1 0-38l438-438-438-438a27 27 0 0 1 0-38l16-16a27 27 0 0 1 38 0l473 473a27 27 0 0 1 0 38l-473 473a27 27 0 0 1-38 0z" horiz-adv-x="543" />

<glyph glyph-name="google" unicode="&#xe801;" d="M953 339c0-277-189-473-469-473-268 0-484 216-484 484s216 484 484 484c131 0 241-47 325-126l-132-127c-172 166-493 41-493-231 0-169 135-306 300-306 192 0 264 138 275 209h-275v167h462c4-25 7-49 7-81z" horiz-adv-x="953" />

<glyph glyph-name="yandex" unicode="&#xe802;" d="M299 233l-171-383h-124l187 410c-88 45-146 126-146 275-1 210 132 315 290 315h161v-1000h-107v383h-90z m90 526h-58c-87 0-171-57-171-224 0-160 77-212 171-212h58v436z" horiz-adv-x="500" />

<glyph glyph-name="icon2" unicode="&#xe803;" d="M893 850h-786a107 107 0 0 1-107-107v-786a107 107 0 0 1 107-107h786a107 107 0 0 1 107 107v786a107 107 0 0 1-107 107z m-435-853c-202 293-239 323-239 430a267 267 0 1 0 533 0c0-107-37-137-239-430a33 33 0 0 0-55 0z m27 319a111 111 0 1 1-111 111 111 111 0 0 1 111-111z" horiz-adv-x="1000" />

<glyph glyph-name="icon4" unicode="&#xe804;" d="M893 850h-786a107 107 0 0 1-107-107v-786a107 107 0 0 1 107-107h786a107 107 0 0 1 107 107v786a107 107 0 0 1-107 107z m-55-271l-103-487c-8-34-28-42-57-26l-157 116-76-73a40 40 0 0 0-32-16l12 160 291 264c13 11-3 17-20 6l-360-227-155 49c-34 10-34 33 7 50l607 233c28 11 52-6 43-49z" horiz-adv-x="1000" />

<glyph glyph-name="icon7" unicode="&#xe805;" d="M468 499l77-649-200 712h399l-276-63m77 342l-200-241 200 129 199-129-199 241m-262-232l36 190 196 51h-255l23-241m-80 232l-106-193 132-48h-229l203 241m602-232l-35 190-196 51h255l-24-241m81 232l106-193-132-48h229l-203 241m19-336l-332-655 293 712h226l-187-57m-386-655l-416 665 123 47h-226l519-712" horiz-adv-x="1092" />

<glyph glyph-name="icon6" unicode="&#xe806;" d="M714 519a306 306 0 0 0 18-92 306 306 0 0 0-294-318 306 306 0 0 0-318 294 306 306 0 0 0 294 318 306 306 0 0 0 247-110 226 226 0 0 0 84 37 399 399 0 0 1-362 202 399 399 0 0 1-383-414 399 399 0 0 1 414-383 399 399 0 0 1 383 414 401 401 0 0 1-11 79 198 198 0 0 1-72-27z m-686-81a366 366 0 0 0 352 380 366 366 0 0 0 280-114 365 365 0 0 1-244 81 366 366 0 0 1-352-380 365 365 0 0 1 100-238 366 366 0 0 0-136 271m1113 105a399 399 0 0 1-563-25 399 399 0 0 1-89-379 111 111 0 0 1 50 13 306 306 0 0 0 63 310 306 306 0 0 0 432 19 306 306 0 0 0 19-433 306 306 0 0 0-433-19 308 308 0 0 0-39 44 210 210 0 0 0-55-23 423 423 0 0 1 77-95 399 399 0 0 1 563 24 399 399 0 0 1-25 564z m5-539a366 366 0 0 0-279-119 365 365 0 0 1 230 117 366 366 0 0 1-23 517 365 365 0 0 1-239 97 365 365 0 0 0 288-94 366 366 0 0 0 23-518" horiz-adv-x="1271" />

<glyph glyph-name="icon5" unicode="&#xe807;" d="M523 340a224 224 0 0 0 13-67c5-124-92-228-216-233s-228 91-232 215 91 228 215 233a224 224 0 0 0 181-81c14 11 45 26 62 28a292 292 0 0 1-265 147c-161-6-287-142-281-303s142-287 303-281 287 142 281 304a294 294 0 0 1-8 57c-18-2-50-15-53-19z m-503-59c-5 148 110 272 258 278a268 268 0 0 0 206-84 267 267 0 0 1-179 59c-148-5-264-130-258-278a267 267 0 0 1 73-174 268 268 0 0 0-100 199m816 76c-119 109-304 101-413-18a292 292 0 0 1-65-278c12 0 25 4 37 10a224 224 0 0 0 46 227c83 91 225 98 316 14s98-226 14-317-225-98-317-14a226 226 0 0 0-29 32c-6-5-34-16-40-17a310 310 0 0 1 56-69c119-109 304-101 413 18s101 303-18 412z m3-394a268 268 0 0 0-204-87 267 267 0 0 1 168 85c100 109 93 279-16 379a267 267 0 0 1-175 71 268 268 0 0 0 211-69c109-100 116-270 16-379m-496 730l21 74h-145l21-74h103m-51 154l-73-66h145l-72 66m-94-63l73 66h-103l30-66m190 0l30 66h-102l72-66m49 63l-31-66h83l-52 66m-290 0l31-66h-83l52 66m288-154l54 74h-82l-30-74h58m-228 0l-30 74h-82l54-74h58m171-94h-171l-56 74h282l-55-74" horiz-adv-x="930" />

<glyph glyph-name="icon3" unicode="&#xe808;" d="M893 850h-786a107 107 0 0 1-107-107v-786a107 107 0 0 1 107-107h786a107 107 0 0 1 107 107v786a107 107 0 0 1-107 107z m-683-857a34 34 0 0 0-33 26l-33 145a34 34 0 0 0 19 38l156 67a34 34 0 0 0 40-9l69-85a518 518 0 0 1 247 247l-85 70a34 34 0 0 0-9 39l67 156a34 34 0 0 0 38 19l145-33a34 34 0 0 0 26-33 647 647 0 0 0-647-647z" horiz-adv-x="1000" />

<glyph glyph-name="icon1" unicode="&#xe809;" d="M500 647a294 294 0 0 1-249-450l7-11-30-109 111 29 11-6a293 293 0 0 1 150-41h0a292 292 0 0 1 208 502 292 292 0 0 1-208 86z m173-420a90 90 0 0 0-60-42c-28-4-50-2-106 22a397 397 0 0 0-151 133 171 171 0 0 0-36 92 99 99 0 0 0 31 74 32 32 0 0 0 24 11c6 0 12 0 17 0s13 2 20-15 25-62 27-66a16 16 0 0 0 1-15c-17-34-35-33-26-49a241 241 0 0 1 120-105c9-4 14-4 19 2s22 26 28 35 12 7 20 5 51-25 60-29 15-7 17-11a79 79 0 0 0-5-42z m220 623h-786a107 107 0 0 1-107-107v-786a107 107 0 0 1 107-107h786a107 107 0 0 1 107 107v786a107 107 0 0 1-107 107z m-393-851a354 354 0 0 0-169 43l-188-49 50 183a355 355 0 1 0 664 177 357 357 0 0 0-357-354z" horiz-adv-x="1000" />

<glyph glyph-name="icon9" unicode="&#xe80a;" d="M953 803l-197 45a61 61 0 0 1-70-35l-91-212a61 61 0 0 1 17-71l106-86a684 684 0 0 0-312-312l-86 105a61 61 0 0 1-71 18l-212-91a61 61 0 0 1-35-70l45-197a61 61 0 0 1 60-47 893 893 0 0 1 893 894 61 61 0 0 1-47 59z m-845-891l-45 195 210 90 116-142a755 755 0 0 1 406 406l-142 116 90 210 194-45a831 831 0 0 0-829-830z" horiz-adv-x="1000" />

<glyph glyph-name="radiant_front" unicode="&#xe80b;" d="M864 850h-728l-136-136v-728l136-136h728l136 136v728z m126-852l-98 72v560l98 72z m-3 715l-101-74-48 48-49 49 74 101z m-839-853l72 98h560l72-98z m-136 853l125 124 74-101-97-97z m97-83v-560l-100-72v704z m743 210l-72-99h-560l-72 99z m-67-115l45-45 46-45-113-22z m-3 10z m16-385l83 252v-505z m80-276l-116 22 33 232z m-83 297l-32 232 116 22z m-7-22l-35-252-253-35-252 35-35 253 35 252 252 35 253-35z m-573-376l-91 91 113 22z m0 752l22-112-113 22z m264-81l-232-32-23 116z m-231 86h504l-252-83z m-42-402l32-232-116-23z m-87-231v504l84-252z m3 528l116-23-32-232z m125-538l232-32-254-85z m253-36l252-83h-504z m22 4l231 32 23-117z m0 589l254 84-23-116z m242-558l112-22-90-91z m-689-162l-62 63 101 74 48-49 49-49-74-101z m714 39l98 97 101-74-125-125z" horiz-adv-x="1000" />

<glyph glyph-name="princess_front" unicode="&#xe80c;" d="M0 850v-1000h1000v1000z m863-425l-37 244h0l95 33-52-320z m1-75l-48-316-317-48-316 48-48 316 48 316 316 48 317-48z m-44 326h0l-245 37-42 7 320 52z m-320 48l-301 49h601z m-33-5l-42-6-245-37h0l-32 95z m-294-50l-36-244-7-43-52 320 95-33z m-48-319l-49-301v602z m5-32l7-42 37-245h0l-95-33z m50-294h0l245-37 42-7-320-51z m320-48l300-49h-601z m32 5l42 6 245 37h0l32-95z m294 50l37 245 6 42 52-320-95 33z m48 319l49 301v-602z m-42 332l32 92 119 59-59-119z m28 101h-719l-116 57h950z m-723-9l32-92-92 32-59 119z m-69-64v-720l-58-116v951z m9-723l92 32-32-92-120-60z m64-69h719l116-58h-951z m723 9l-32 92 92-33 59-119z m69 64v718l57 116v-950z" horiz-adv-x="1000" />

<glyph glyph-name="pear_front" unicode="&#xe80d;" d="M636 195v1a1061 1061 0 0 1-20 176 937 937 0 0 1-59 191h0v1h0a699 699 0 0 1-105 170 575 575 0 0 1-131 115l-2 1-2-1a575 575 0 0 1-131-115 699 699 0 0 1-106-169h0l0-1h0a938 938 0 0 1-60-191 1061 1061 0 0 1-20-176v-28a320 320 0 0 1 109-241l0 0a319 319 0 0 1 417 0l1 0a320 320 0 0 1 110 241c0 8 0 17-1 26z m-9-58v-3c-1-10-3-19-5-29a21 21 0 0 0-1-4c-2-10-4-19-7-28a13 13 0 0 0-2-4c-3-10-7-19-11-28l-1-2-53 31 82 113v-14h0a307 307 0 0 0-2-32z m-65-161c-5-6-11-12-16-18-2-2-4-4-7-7s-6-6-9-9l14 120 52-30a313 313 0 0 0-30-51z m-465-25c-3 2-5 5-8 7-5 6-10 12-14 18-2 2-3 4-5 5a313 313 0 0 0-30 51l52 31 15-121a69 69 0 0 0-10 9z m-73 118l-1 4c-4 9-6 18-8 28a7 7 0 0 1-1 4 295 295 0 0 0-5 30v2a306 306 0 0 0-2 32v14l82-113-53-31-1 2q-6 14-11 28z m-14 176v3q2 18 4 37v3c3 24 7 49 12 74l0 2 68-51-87-105v1q2 18 3 36z m334 578c4-3 7-5 11-8 10-7 18-15 27-23l5-4q15-13 29-27c3-4 6-7 9-10 6-7 11-13 17-19l-67-81-51 185a235 235 0 0 0 20-13z m272-496v-2c2-12 3-24 5-37a14 14 0 0 1 0-4q3-18 4-35v-5c1-12 2-23 2-34v-2l-87 105 68 51 1-4c3-11 5-22 7-33z m-95-393l-119-1 45 93 89 37z m-222-76l-8 1a119 119 0 0 0-15 2l-7 1q-11 1-21 4l-4 1c-5 1-10 3-15 4l13 50 65-63z m-199 205l88-37 46-93-119 2z m164 571l49-58-96-116z m154-174l-95 116 48 58z m-234-423l-84 34 37 99z m-79 275l94 114-62-229z m36-130l71 259 106 128 106-128 70-259-52-149v-1l-124-50-123 50h0z m358-12l37-99-85-34z m0 27l-63 229 94-114z m-68 248l-52 191 169-76-17-236z m-113 137l-51 61 51 187 50-187z m-114-137l-100-121-17 236 169 75z m-71-263l-40-104-85 117 91 110z m67-160l109-45-67-42z m118-50l70-44-70-69-72 69z m8 5l110 45-42-87z m177 205l33 123 91-110-85-117z m60 341c2-5 4-10 6-14 4-13 8-25 12-37 1-3 2-6 3-8 4-16 9-31 13-46 0-4 1-7 2-10 3-12 5-23 8-35l-68-51 16 223q4-12 9-22z m-89 167c2-2 3-4 4-6 8-11 16-22 23-34 3-5 6-11 9-16 5-8 10-17 14-25 4-7 7-13 10-20s6-12 9-19l-164 74 68 82q15-18 28-36z m-255 71c8 8 16 15 24 22q6 6 13 12c8 6 16 13 24 20 4 3 8 5 12 8q9 7 18 13l-50-185-67 81c5 6 10 11 15 17s8 8 12 12z m36-117l-164-74c3 6 6 12 9 18s6 14 10 20 9 16 13 24c4 6 7 12 10 18 7 10 13 20 20 30 3 3 4 7 7 10 8 12 18 23 27 35z m-159-322l-68 51c2 8 4 16 6 23s3 15 4 21q6 23 13 46c1 4 3 7 4 11 3 11 7 22 11 34 2 5 4 10 6 16s6 13 9 20z m71-425c-2 1-4 3-6 4-6 4-13 8-19 12-3 2-6 4-9 6s-6 5-9 8l111-2-14-51a315 315 0 0 0-54 23z m226 24l14-50c-6-1-11-3-16-4l-3-1q-11-2-22-4l-6-1c-5-1-10-1-16-2l-8-1h-8z m8 4l111 1c-4-2-7-5-10-7s-6-4-8-6a235 235 0 0 0-21-13l-5-3a314 314 0 0 0-54-23z" horiz-adv-x="637" />

<glyph glyph-name="round_front" unicode="&#xe80e;" d="M957 551a501 501 0 0 1-105 153h0a499 499 0 0 1-353 146h0a499 499 0 0 1-352-145h0l-1-2a500 500 0 0 1-146-353h0a499 499 0 0 1 146-353l3-4h0a499 499 0 0 1 350-143h0a500 500 0 0 1 346 139l0 0 7 7h0l2 2h0a500 500 0 0 1 145 352h0a497 497 0 0 1-42 201z m32-229a112 112 0 0 0-2-17 29 29 0 0 0 0-7q-2-11-3-23v-1a488 488 0 0 0-18-73l-1-2q-3-10-6-20c-1-2-2-5-3-7-2-4-3-8-5-12l-94 66 132 115v-9c0-3 0-7 0-10z m-167-340c-4-4-8-7-12-11-9-7-18-13-27-20-3-2-6-4-8-6a494 494 0 0 0-76-42l-66 93h204q-7-7-15-14z m-783 197c-2 6-4 12-5 17-1 2-2 4-3 6a487 487 0 0 0-16 72v3c-1 7-2 14-3 21a25 25 0 0 1-1 7c0 6-1 11-1 18v18l133-114-94-67c-2 4-3 7-4 10s-4 6-6 9z m-30 201c0 6 1 11 2 17a24 24 0 0 0 0 7c1 8 2 15 3 22v2a489 489 0 0 0 17 72c1 3 2 5 3 7 1 5 3 11 5 16 1 3 3 6 4 10s3 6 4 9l94-66-133-115v10c0 4 1 6 1 9z m167 340c4 3 8 7 13 11 8 6 16 13 25 19 3 2 6 5 10 7a491 491 0 0 0 75 42l66-93h-205c5 4 11 9 16 14z m783-197c2-6 4-13 7-19l1-3a489 489 0 0 0 20-97v-5c1-7 1-13 2-20v-18l-132 114 94 67c1-4 3-8 4-12s2-4 3-7z m-831-492c-3 4-7 7-10 11-8 10-15 20-22 30l-3 5q-12 18-23 38c-1 1-2 3-3 5-5 10-11 21-16 32l94 66v-205a140 140 0 0 0-17 18z m361 32l-113-56-71 133z m21 0l183 76-70-132z m-11 5l-200 83-83 200 83 200 200 83 200-83 83-200-83-200z m-345 407l133 70-76-183z m56-135l76-183-132 71z m278 299l-183-76 70 132z m21 0l113 56 70-132z m278-299l56-112-133-71z m0 22l-76 183 132-71z m58 122l-139 74-74 139h212z m-346 159l-118 59 118 137 118-137z m-346 53h213l-74-139-139-74z m-6-228l59-118-59-118-136 118z m6-463v213l139-74 74-139z m346 53l118-60-118-136-118 136z m346-52h-213l74 139 139 73z m6 227l-59 118 59 119 136-119z m17 441c4-4 7-8 11-12 7-9 14-18 20-26 2-3 5-6 6-9a490 490 0 0 0 43-76l-94-66v204c5-5 9-10 14-15z m-93 83c3-2 6-4 9-6 8-6 17-13 26-20 4-3 8-7 12-11s10-9 15-14h-204l66 93a494 494 0 0 0 75-42z m-256 85h9c6 0 11-1 17-2l7 0q11-2 21-3h3a488 488 0 0 0 72-17l7-3c5-1 11-3 16-5l9-4 10-4-66-94-115 133z m-201-35l10 4c5 2 10 4 15 5l7 3a487 487 0 0 0 72 17h3c7 1 14 2 21 3l7 0c6 0 11 1 17 2h19l-115-133-66 94z m-174-322l-93 66a494 494 0 0 0 42 75c2 4 5 6 7 10 6 8 13 17 19 25 4 5 8 9 12 13s9 10 14 15z m80-540c-3 2-5 4-8 6-9 7-18 13-27 20-4 4-8 8-12 12s-11 9-16 14h204l-66-93a492 492 0 0 0-75 41z m256-84h-10l-16 2-8 0q-10 2-20 3h-4a489 489 0 0 0-72 17l-5 2c-6 2-12 4-18 6l-7 3-11 5 66 94 114-133z m199 34l-8-3q-9-3-18-6l-4-2a487 487 0 0 0-72-17h-4c-6-1-13-2-20-3l-8 0-17-2h-19l115 133 66-94z m175 322l93-66a489 489 0 0 0-42-76c-2-2-4-5-6-8-7-9-13-18-20-27-4-4-8-8-11-12s-9-10-14-15z" horiz-adv-x="999" />

<glyph glyph-name="oval_front" unicode="&#xe80f;" d="M546-3z m67 552a569 569 0 0 1-66 153h0l-1 1a360 360 0 0 1-97 105 226 226 0 0 1-129 42h0a226 226 0 0 1-129-42 362 362 0 0 1-98-105h0a571 571 0 0 1-66-153 746 746 0 0 1-27-200h0a746 746 0 0 1 27-199 571 571 0 0 1 66-154h0l9-13v1a353 353 0 0 1 89-93 226 226 0 0 1 129-42h0a226 226 0 0 1 129 42 362 362 0 0 1 98 105l-2 1h2a570 570 0 0 1 66 153 746 746 0 0 1 27 200h0a746 746 0 0 1-27 198z m-59 122c3-4 5-8 7-12 4-8 8-16 11-24 2-3 3-7 5-10 4-10 8-20 12-31 1-2 2-4 3-7q6-18 12-38l-56-62v196c1-4 4-7 6-11z m-15-186l-86 71-47 140h132z m-220-418l-125 82-53 201 53 200 125 82 126-82 54-200-53-201z m122 68l-44-129-70 55z m-129-74l-70-55-44 129z m-130 97l-81 67 35 108z m-81 315l81 68-46-176z m97 91l44 129 70-55z m129 74l70 55 44-129z m176-304l34-108-80-67z m-46 207l80-67-34-108z m7 244c2-2 4-4 6-5q12-12 24-24l1-1a191 191 0 0 0 21-25c2-3 5-6 7-9 4-5 7-10 11-16h-128l42 92c5-4 10-8 16-13z m-132 56h7l9-1 6-1c3-1 7-2 10-2l5-1c4-2 9-3 13-4h2a228 228 0 0 0 30-13l2-1c4-2 8-4 11-7l6-3 7-4-41-92-72 130z m-12-5l74-134-74-58-74 58z m-115-29l7 4c3 2 6 3 10 5l4 2a224 224 0 0 0 29 13l3 0c4 2 8 3 12 4l5 1 10 2 7 1 8 1h12l-72-130-41 92z m-89-88c3 4 5 8 8 12a275 275 0 0 0 19 22l3 3a327 327 0 0 0 24 23c2 2 4 4 7 6 5 4 10 8 15 12l41-92h-127a123 123 0 0 0 9 14z m-14-23h132l-47-140-86-71z m-54-108c1 2 2 5 3 7 4 10 8 20 11 30 2 4 4 7 5 11 4 8 8 16 12 24 2 4 4 8 6 12s5 8 7 12v-197l-56 62c4 13 7 26 12 38z m-37-199a104 104 0 0 0 0 16q2 22 5 44v3q3 24 7 47c1 5 3 10 4 14 2 9 4 18 6 26l58-64-82-111c0 8 1 17 1 25z m16-202c-1 5-2 9-3 14q-5 23-8 47v3q-3 22-4 44a106 106 0 0 1-1 16q-1 12-1 25l81-111-57-64a164 164 0 0 0-7 26z m59-159c-2 4-5 8-7 12-4 8-8 16-11 24-2 4-3 7-5 11q-6 15-12 31c-1 2-2 4-2 6-5 13-9 25-12 39l56 62v-197a81 81 0 0 0-8 12z m-76 322l85 115 37-115-37-116z m92-346v211l85-72 47-140z m75-90c-3 2-5 4-7 6a354 354 0 0 0-46 49c-2 3-5 6-7 9-4 5-8 11-11 16h128l-42-92a195 195 0 0 0-16 13z m131-56h-7l-9 1-6 1-11 4-5 1c-4 1-8 2-12 3l-3 1a218 218 0 0 0-29 13l-4 2c-4 2-7 3-10 6l-6 3-7 4 41 92 72-130z m12 6l-74 134 74 59 74-59z m113 29l-5-3c-4-3-8-5-11-7l-3-1a224 224 0 0 0-30-13h-1c-5-1-9-2-14-4l-5-1c-3-1-7-2-11-3l-5 0-10-2h-11l71 130 41-91z m88 84c-2-3-4-5-5-8a354 354 0 0 0-47-49c-2-2-4-3-6-5-5-5-10-9-16-13l-41 92h128a162 162 0 0 0-13-17z m17 27h-132l47 140 85 71z m6 230l-36 116 36 115 85-115z m47-122c-1-2-2-4-2-6-4-11-8-21-13-31-1-4-3-7-4-10-4-9-8-17-12-25-2-4-4-8-6-11s-5-8-7-12v196l56-62c-4-14-7-26-11-39z m37 197a88 88 0 0 0 0-14 735 735 0 0 0-13-95c-1-3-2-7-2-10-3-10-5-20-7-29l-58 64 81 110a264 264 0 0 0 0-26z m-80 166l58 64c2-10 4-19 7-29 0-4 1-7 2-11a738 738 0 0 0 13-95 89 89 0 0 1 0-14c0-8 1-17 1-26z" horiz-adv-x="640" />

<glyph glyph-name="marquise_front" unicode="&#xe810;" d="M477 351a646 646 0 0 1-11 118 724 724 0 0 1-47 151v1a726 726 0 0 1-68 125c-45 64-87 102-111 104h-3c-25-2-67-40-111-104a723 723 0 0 1-68-125v0a727 727 0 0 1-47-152 647 647 0 0 1-11-118 8 8 0 0 1 0-1 12 12 0 0 1 0-1 647 647 0 0 1 11-118 727 727 0 0 1 47-151v-1a723 723 0 0 1 68-125c44-64 87-102 111-104h3c24 2 67 40 111 104a726 726 0 0 1 68 125v1a725 725 0 0 1 46 151 646 646 0 0 1 12 118v1c0 1 0 1 0 1z m-9-36c0-6-1-13-1-19a34 34 0 0 0-1-8c-2-18-4-35-7-52l-49 4 59 94v-9c0-4-1-7-1-10z m-73-270c-4-9-9-17-13-25l-3-6q-8-14-16-28l-5-6q-5-9-11-18l-40 41 100 66c-2-5-5-10-7-14a110 110 0 0 1-5-10z m-79-124l-2-3c-3-3-5-6-7-8s-6-7-8-10l-5-4c-3-4-7-7-10-10l-4-3c-3-3-6-6-9-8l-4-3c-2-2-4-3-7-5l-4-3a43 43 0 0 0-5-2c-1-1-3-2-4-2h0l55 137 41-41c-3-4-5-7-7-10-7-9-14-17-20-25z m-85-62a41 41 0 0 0-5 3c-2 0-3 1-5 2l-4 3c-2 1-5 3-7 5l-4 3q-4 3-9 7l-4 4-9 9-6 6-6 7a492 492 0 0 0-32 40c-2 3-3 5-5 8l41 41 55-137z m-117 127q-8 14-16 28c-2 3-3 7-5 10-4 6-7 13-10 20-2 4-4 8-6 12s-4 9-6 13l100-65-40-42c-3 5-6 10-9 14s-6 7-8 11z m-101 281c0 7-1 13-2 20 0 4-1 8-1 12s-1 10-1 15 0 8-1 12v8l59-95-49-3q-1 8-2 17c-1 5-2 10-3 14z m-4 119c0 5 1 10 1 15s1 8 1 12c1 6 1 12 2 19s2 11 3 16 1 10 2 16l49-4-59-94v7c0 5 0 9 1 13z m74 269c3 7 6 13 10 19 2 4 4 8 6 12q7 14 15 27c3 3 5 7 7 10s6 10 9 14l41-41-101-66c2 4 4 9 6 13s4 9 6 13z m89 136c2 3 4 5 6 8l6 6c3 3 6 5 8 8l5 4q4 4 8 7l5 4c2 1 4 3 6 4l5 3 4 2a52 52 0 0 0 6 3h0l-56-138-41 42c2 3 5 6 7 9a455 455 0 0 0 31 38z m74 49c2 0 3-1 5-2a54 54 0 0 0 5-3l4-2c2-2 5-3 7-5l4-3c3-3 6-5 9-8l4-4c3-2 6-5 9-8l6-6c2-2 4-5 7-8a362 362 0 0 0 30-38c2-3 4-6 6-9l-41-41-55 137z m117-127q8-13 16-28l3-6c5-8 9-16 13-24 1-3 3-6 4-10 3-5 5-10 7-15l-100 66 40 41c4-5 7-10 10-15a92 92 0 0 0 6-8z m104-309c0-7 1-13 1-19v-19l-58 94 48 4c3-17 5-34 7-52a27 27 0 0 0 2-8z m2-54l-65-104-32 104 32 104 65-104z m-461 0l64 104 33-104-33-104-65 104z m230-277l-89 113-35 165 35 164 89 112 90-112 35-164-35-165z m-99 120l-61 44 31 97z m-61 269l61 44-30-141z m290-128l30-97-60-44z m-30 172l60-44-30-97z m-3 13l-30 168 107-70-13-145z m-10 13l-80 101 53 54z m-86 107l-57 58 57 141 57-141z m-6-6l-80-101 27 155z m-92-114l-64-47-12 145 107 70z m-64-290l64-48 31-168-107 70z m75-60l81-102-54-54z m86-108l57-57-57-142-56 142z m6 6l81 102-28-156z m92 114l64 48 12-146-106-70z m87 410c2-5 3-10 5-14 3-7 5-15 8-22 1-4 2-9 4-13 2-9 5-19 8-28 0-3 1-5 2-8 2-11 5-22 7-34l-49-4 11 133c1-3 2-7 4-10z m-353-123l-50 4c2 12 5 23 7 34 1 4 2 7 3 11 3 8 5 16 7 25 2 5 3 10 5 15 2 6 5 13 7 19s4 11 6 16l3 9z m-15-359c-2 5-4 10-6 15-3 7-5 13-7 20-2 5-3 9-5 14-2 9-5 17-7 26-1 3-2 7-3 10-2 11-5 22-7 34l50 3-12-132a103 103 0 0 0-4 9z m353 123l49-4c-2-12-5-23-7-35a25 25 0 0 0-2-5q-4-15-8-30c-1-4-3-7-4-11-3-8-5-16-8-24l-5-12c-1-4-3-8-4-12z" horiz-adv-x="477" />

<glyph glyph-name="emerald_front" unicode="&#xe811;" d="M670 696l-153 154h-363l-1-2-152-151h0l-1-1v-691l155-155h362l155 155v690z m-43-668v644l36 15v-674z m32 667l-36-15-121 121 15 36z m-495-837l14 36h316l15-36z m-151 837l142 142 15-36-121-121z m32-23v-644l-36-16v675z m169-679l-70 71v571l70 70h244l70-70v-571l-70-70z m258-45h-271l14 36h241z m-265 763l-69-69-36 15 90 90z m-6 39h270l-15-36h-240z m264-39l15 36 89-90-36-15z m10 48h-278l-15 36h308z m-286-3l-96-95-35 15 116 116z m-90-107l36-15v-569l-36-15z m39-592l69-69-15-36-89 90z m59-118h278l15-36h-308z m268 49l68 69 36-15-90-90z m72 78v568l36 15v-599z m-54 690l15 36 116-116-36-14z m10 49h-315l-15 36h345z m-439-137l36-16v-606l-36-15z m39-630l95-95-15-36-116 116z m390-95l96 95 36-15-117-117z m99 103v607l36 15v-636z m-570-42l36 15 122-121-15-36z m490-106l121 121 36-14-142-144z" horiz-adv-x="672" />

<glyph glyph-name="assher_front" unicode="&#xe812;" d="M999 728l-121 122h-755l-121-122h0l-2-1v-754l123-123h754l123 123v754z m-86-684v612l78 59v-731z m-776-185l59 78h611l59-78z m-123 866l112 112 61-80-93-93z m75-70v-612l-79-59v731z m776 185l-59-78h-611l-59 78z m-565-753l-62 62v401l62 62h401l63-62v-401l-63-61z m436-56h-471l35 46h400z m-444 587l-59-59-48 37 71 71z m-26 50h470l-35-46h-401z m444-50l37 48 70-71-48-37z m33 60h-485l-56 74h596z m-494-4l-72-73-76 57 91 91z m-67-89l46-35v-401l-46-35z m51-445l59-59-37-48-71 71z m25-119h485l56-74h-597z m452 60l59 59 48-37-71-69z m63 68v401l47 35v-471z m-21 525l57 76 91-91-76-57z m-654-26l74-55v-486l-74-56z m78-550l73-73-57-75-91 91z m576-73l72 73 76-57-91-91z m77 82v486l74 55v-597z m-14 651l60 80 112-113-80-60z m-802-784l80 61 93-93-61-81z m802-32l92 93 80-61-112-113z" horiz-adv-x="1000" />

<glyph glyph-name="vk" unicode="&#xe813;" d="M893 850h-786a107 107 0 0 1-107-107v-786a107 107 0 0 1 107-107h786a107 107 0 0 1 107 107v786a107 107 0 0 1-107 107z m-11-292c5 18 0 32-27 32h-87a38 38 0 0 1-38-25 733 733 0 0 0-108-179c-20-20-29-27-40-27-6 0-14 7-14 25v174c0 22-7 32-25 32h-138a21 21 0 0 1-22-20c0-21 32-26 35-85v-129c0-29-5-34-16-34-30 0-102 109-145 234-8 24-17 34-39 34h-88c-25 0-30-12-30-25 0-23 30-138 138-290 73-104 175-160 267-160 56 0 63 12 63 34 0 99-5 108 23 108 13 0 35-6 87-56 59-60 69-86 102-86h88c25 0 37 12 30 37-17 52-129 158-134 166-13 16-9 24 0 38 0 0 107 151 118 202z" horiz-adv-x="1000" />

<glyph glyph-name="facebook" unicode="&#xe814;" d="M1000 743v-786a107 107 0 0 0-107-107h-191v396h136l19 150h-155v97c0 44 13 73 75 73h80v135a1074 1074 0 0 1-116 6c-116 0-195-70-195-199v-112h-135v-151h136v-395h-440a107 107 0 0 0-107 107v786a107 107 0 0 0 107 107h786a107 107 0 0 0 107-107z" horiz-adv-x="1000" />

<glyph glyph-name="instagram" unicode="&#xe815;" d="M500 606a256 256 0 1 1 257-256 256 256 0 0 1-257 256z m0-423a167 167 0 1 0 167 167 167 167 0 0 0-167-167z m327 434a60 60 0 1 0-60 60 60 60 0 0 0 60-60z m170-61a296 296 0 0 1-81 210 298 298 0 0 1-210 80c-82 5-330 5-412 0a298 298 0 0 1-210-80 297 297 0 0 1-80-210c-5-82-5-330 0-412a296 296 0 0 1 80-210 298 298 0 0 1 210-81c82-4 330-4 412 0a296 296 0 0 1 210 81 298 298 0 0 1 81 210c4 82 4 330 0 412z m-107-501a169 169 0 0 0-95-95c-66-26-222-20-295-20s-229-6-295 20a169 169 0 0 0-95 95c-26 66-20 222-20 295s-5 229 20 295a169 169 0 0 0 95 95c66 26 222 20 295 20s229 6 295-20a169 169 0 0 0 95-95c26-66 20-222 20-295s6-229-20-295z" horiz-adv-x="1000" />

<glyph glyph-name="quotes-right" unicode="&#xe816;" d="M841-150l6 70q161 69 234 151a315 315 0 0 1 81 186q5 60-10 85a47 47 0 0 1-36 27 207 207 0 0 1-61-8 227 227 0 0 0-72-7 174 174 0 0 0-122 64 177 177 0 0 0-43 133 193 193 0 0 0 24 78 188 188 0 0 0 54 62 258 258 0 0 0 76 38 235 235 0 0 0 91 10 250 250 0 0 0 110-37 336 336 0 0 0 91-83 369 369 0 0 0 75-258 508 508 0 0 0-45-170 540 540 0 0 0-100-148 641 641 0 0 0-153-118 741 741 0 0 0-200-75z m-656 60l6 65a1218 1218 0 0 1 155 85 462 462 0 0 1 95 80 266 266 0 0 1 50 84 390 390 0 0 1 20 98 119 119 0 0 1-13 77 54 54 0 0 1-39 27 181 181 0 0 1-59-9 216 216 0 0 0-79-8 177 177 0 0 0-118 61 166 166 0 0 0-44 131 182 182 0 0 0 25 78 235 235 0 0 0 55 64 231 231 0 0 0 77 41 241 241 0 0 0 93 9 251 251 0 0 0 108-35 307 307 0 0 0 90-81 389 389 0 0 0 58-116 357 357 0 0 0 15-140 538 538 0 0 0-145-326 602 602 0 0 0-152-115 709 709 0 0 0-198-70z" horiz-adv-x="1444" />

<glyph glyph-name="quotes-left" unicode="&#xe817;" d="M603 850l-6-70q-161-69-234-151a315 315 0 0 1-81-186q-5-60 10-85a47 47 0 0 1 36-27 207 207 0 0 1 61 9 227 227 0 0 0 72 7 174 174 0 0 0 122-64 177 177 0 0 0 43-134 193 193 0 0 0-24-78 188 188 0 0 0-54-62 258 258 0 0 0-76-38 235 235 0 0 0-91-10 250 250 0 0 0-110 37 336 336 0 0 0-91 83 369 369 0 0 0-75 258 508 508 0 0 0 45 170 540 540 0 0 0 100 148 641 641 0 0 0 153 118 741 741 0 0 0 200 75z m656-60l-6-65a1218 1218 0 0 1-155-84 462 462 0 0 1-95-81 266 266 0 0 1-50-84 390 390 0 0 1-20-98 119 119 0 0 1 13-77 54 54 0 0 1 39-27 181 181 0 0 1 59 9 216 216 0 0 0 79 8 177 177 0 0 0 118-61 166 166 0 0 0 44-131 182 182 0 0 0-25-78 235 235 0 0 0-55-64 231 231 0 0 0-77-41 241 241 0 0 0-93-9 251 251 0 0 0-108 35 307 307 0 0 0-90 81 389 389 0 0 0-58 116 357 357 0 0 0-15 140 538 538 0 0 0 45 175 532 532 0 0 0 101 151 602 602 0 0 0 151 115 709 709 0 0 0 198 70z" horiz-adv-x="1444" />

<glyph glyph-name="cushion_front" unicode="&#xe818;" d="M998 394c0 17 0 35-1 53a1109 1109 0 0 1-25 213h0v1l-1 4-1 5h0a226 226 0 0 1-48 99l-1 1-1 1h0l-1 1-2 2-3 3-3 3h0a250 250 0 0 1-100 44h0a1109 1109 0 0 1-214 25c-18 0-36 1-54 1h-88c-17 0-35 0-53-1a1108 1108 0 0 1-214-25h-1a250 250 0 0 1-101-44l-3-4-2-2-2-1-1-2h0l-1-1-2-1a219 219 0 0 1-48-99h0l-1-6v-4h0a1102 1102 0 0 1-25-213c0-18-1-36-1-53v-88c0-18 0-35 1-53a1102 1102 0 0 1 25-213h0v-3l0-3h0a225 225 0 0 1 50-103l1-1 1-1h0l2-2 1-1 3-2 3-4h0a243 243 0 0 1 97-44h0l3 0h2a1100 1100 0 0 1 213-25c18 0 36-1 53-1h87c17 0 35 0 53 1a1101 1101 0 0 1 213 25h3l3 0h0a243 243 0 0 1 97 44h0l3 3 3 3 1 2 1 1h0l1 1 2 1a228 228 0 0 1 49 103h0l1 4v1a1104 1104 0 0 1 25 213c0 19 1 36 1 54v60c1 8 1 18 0 28z m-12-170a80 80 0 0 0-1-14c0-4 0-9-1-14s0-8 0-12a146 146 0 0 1-2-15 38 38 0 0 0 0-9c-1-10-2-20-3-29a81 81 0 0 0-2-11c0-4-1-9-2-13s-1-8-1-11-2-8-2-12-2-8-2-11-2-8-2-11l-1-4-81 277 101-86v-13c0-4-1-8-1-13z m-29-205l-1-4c-1-4-3-7-4-11l-1-4c-2-4-3-7-4-10l-2-4-4-9-2-4c-1-3-2-5-4-7l-3-5c-1-2-2-4-3-6s-3-5-5-7l-3-4a77 77 0 0 0-5-6l-112 113 157-16-1-4c-1-5-2-8-3-12z m-415-160h-92c-13 0-26 0-39 1l86 103 87-103c-13 0-26-1-38-1z m-466 84c-2 3-5 6-7 9l-2 3c-2 2-3 4-4 7l-3 4c-1 2-2 4-3 7l-3 5c-1 2-2 5-3 7s-1 4-2 6-2 5-3 8l-3 6c0 2-1 5-2 8s-2 5-2 7-2 5-3 8l-1 6 157 17-112-112a23 23 0 0 0-4 4z m-66 533v10c0 6 1 12 1 17s1 11 1 16 1 10 2 15q0 11 2 21c0 3 0 6 1 9 0 6 1 11 2 17a77 77 0 0 0 1 9c1 5 1 10 2 16l2 8q1 8 3 16a32 32 0 0 0 1 7l1 3 80-276-101 85v4c1 8 2 16 2 23z m29 202l2 7c1 3 2 6 2 8s2 5 3 7 2 5 3 8 1 3 2 5 2 5 3 8l3 5c1 2 2 4 3 7s2 3 3 4 2 4 4 6 2 3 3 5 3 4 5 6 3 4 5 6l112-112-157 16 1 6c1 3 2 6 3 8z m883 75l1-2a83 83 0 0 0 6-8c2-3 2-3 3-5s3-4 4-6l3-6 3-5 3-8 2-5c1-3 3-6 3-9l2-5c1-3 3-7 4-10l1-5c1-4 2-7 3-11l1-3-157-17 112 112a93 93 0 0 0 6-7z m47-124c1-4 2-9 3-13s1-7 1-11 2-8 2-12l2-13a115 115 0 0 1 2-12c0-4 1-9 1-13a44 44 0 0 1 1-8q1-17 3-35a41 41 0 0 1 0-8 95 95 0 0 1 1-16c1-5 0-8 1-12a79 79 0 0 0 0-13v-14l-101-85 81 277v-3a21 21 0 0 0 3-9z m19-228v-102c0-12 0-24-1-36l-103 87 103 86c1-12 1-24 1-35z m-85-474c-2-1-4-3-6-4l-5-4-6-4-5-3-6-3-5-3-8-3-5-2-9-3-5-2-10-3-5-2-11-3-4-1-15 157 112-113c-3-1-4-3-6-4z m-724-39l-11 3-5 1-10 4-5 1-9 4-5 2-8 3-5 3-7 3-4 3-6 4c-3 2-6 4-8 6l-3 1c-2 2-4 4-6 6l112 112-16-157z m-150 171l-1 5-1 8c-1 5-2 10-3 15a47 47 0 0 1-2 9q-1 8-2 16a59 59 0 0 1-1 8c-1 7-2 14-3 21v4c-1 8-1 17-2 25a46 46 0 0 1-1 11 113 113 0 0 0-1 16 118 118 0 0 1-1 15c-1 5 0 8-1 12 0 8 0 15-1 23v4l101 85z m-21 238v105q0 17 0 35l104-87-104-86c1 10 0 22 0 33z m96 484l4 2 7 5 5 2 7 3 6 3 6 3 8 3 6 2 9 3 6 2 11 3 4 1 16-158-112 112a115 115 0 0 0 17 14z m713 31l11-3 6-2 9-3 6-2 8-3 6-3 6-3 6-3 6-2 6-4 5-3a98 98 0 0 0 8-6l3-2c2-2 4-3 6-5l-111-113 16 157z m-606-375l5-86-5-88-85 87z m0 200l177-9-85-84-83-85z m10-397l83-85 84-83-177-9z m90-78l-90 91 5 97-5 97 90 91 91 89 97-5 96 5 92-89 89-91-5-97 5-97-89-91-92-89-97 5-96-5z m298 466l177 9-9-177-84 84z m85-473l83 85 9-177-177 9z m91 108l-4 86 4 87 85-87z m1 187l10 188 165 17-87-296z m1 198l-188-10-91 89 296 86z m-201-11l-87-4-87 4 87 85z m-188 1l-188 10-17 165 296-86z m-197 1l10-188-89-92-87 296z m-79-298l89-91-10-188-166-17z m88-288l187 10 92-89-296-86z m201 11l87 4 87-4-87-86z m188-1l187-10 17-165-296 86z m197-1l-10 188 89 91 86-296z m-190 777l19-1h11l16-1 12-1 14-1 16-2 19-2 15-2 11-1 13-2 11-2 12-2 11-2 4-1-277-81 85 102z m-152 1h88c14 0 28 0 42-1l-86-103-86 103c14 0 28 0 42 1z m30-103l-277 81 5 1 9 2 14 2 9 2 15 2 9 1 19 3 8 0 23 3 12 1 14 1 15 1 13 0 17 1h9z m-88-877l-25 1h-6l-21 2h-8l-18 1h-6c-11 1-21 2-31 3l-12 2-11 1-13 2-10 2-14 2-9 2-5 1 277 81-85-101z m116 101l277-81-5-1-9-1-14-3-9-1-15-2-9-2-16-2-24-2-9-1-19-1h-8l-20-2h-7l-24-1h-3z m407 809z m-843 1z m843-844z" horiz-adv-x="998" />

<glyph glyph-name="baguette_front" unicode="&#xe819;" d="M0 850v-1000h630v1000z m492-851l56-65h-468l56 65z m-352 10v681h350v-681z m360-4v688l55 64v-815z m-7 695h-356l-56 65h468z m-364-7v-687l-55-63v814z m428-769l56-65h-598l56 65z m8 6v838l55 64v-966z m-8 845h-485l-56 65h599z m-493-7v-837l-55-63v964z" horiz-adv-x="630" />

<glyph glyph-name="ring" unicode="&#xe81a;" d="M357 563a357 357 0 0 1-357-356 357 357 0 0 1 357-357 357 357 0 0 1 356 357 357 357 0 0 1-356 356z m0-556a264 264 0 0 0-265 264 264 264 0 0 0 265 265 264 264 0 0 0 264-265 264 264 0 0 0-264-264m-160 675a42 42 0 0 0-42-42 42 42 0 0 0-41 42 42 42 0 0 0 41 41 42 42 0 0 0 42-41m129 0a42 42 0 0 0-42-42 42 42 0 0 0-42 42 42 42 0 0 0 42 41 42 42 0 0 0 42-41m128 0a42 42 0 0 0-42-42 42 42 0 0 0-42 42 42 42 0 0 0 42 41 42 42 0 0 0 42-41m128 0a42 42 0 0 0-41-42 42 42 0 0 0-42 42 42 42 0 0 0 42 41 42 42 0 0 0 41-41m-468-47a65 65 0 0 1 63-50h339a65 65 0 0 1 64 50h-466m233 215c-117 0-212-50-212-112 0 0 0-1 0-1a59 59 0 0 0 20 3 59 59 0 0 0 59-55h11a59 59 0 0 0 58 55 59 59 0 0 0 59-55h11a59 59 0 0 0 58 55 59 59 0 0 0 59-55h11a59 59 0 0 0 58 55 59 59 0 0 0 20-3c0 0 0 1 0 1 0 62-95 112-212 112z m-86-76c-46-18-87-22-92-9s28 38 74 56 88 22 93 9-28-38-75-56" horiz-adv-x="713" />

<glyph glyph-name="filter" unicode="&#xe81c;" d="M463 700h687v-98h-687z m-463 0h246v-98h-246z m905-604h245v-99h-245z m-905 0h639v-99h-639z m344 361a197 197 0 1 0 196 197 197 197 0 0 0-196-197z m0 295a98 98 0 1 1 98-98 98 98 0 0 1-98 98z m408-902a197 197 0 1 0 196 196 197 197 0 0 0-196-196z m0 295a98 98 0 1 1 98-99 98 98 0 0 1-98 99z" horiz-adv-x="1150" />

<glyph glyph-name="copy" unicode="&#xe81d;" d="M848 721l-102 102a94 94 0 0 1-66 27h-336a94 94 0 0 1-94-94v-93h-156a94 94 0 0 1-94-94v-625a94 94 0 0 1 94-94h437a94 94 0 0 1 94 94v94h156a94 94 0 0 1 94 93v524a94 94 0 0 1-27 66z m-160 66a31 31 0 0 0 14-9l101-101a31 31 0 0 0 9-14h-124z m-125-843a31 31 0 0 0-32-32h-437a31 31 0 0 0-31 32v625a31 31 0 0 0 31 31h156v-469a94 94 0 0 1 94-93h219z m250 187a31 31 0 0 0-32-31h-437a31 31 0 0 0-31 31v625a31 31 0 0 0 31 32h281v-141a47 47 0 0 1 47-47h141z" horiz-adv-x="875" />

<glyph glyph-name="trash-alt" unicode="&#xe81e;" d="M578 6h31a16 16 0 0 1 16 16v531a16 16 0 0 1-16 16h-31a16 16 0 0 1-15-16v-531a16 16 0 0 1 15-16z m-312 0h31a16 16 0 0 1 16 16v531a16 16 0 0 1-16 16h-31a16 16 0 0 1-16-16v-531a16 16 0 0 1 16-16z m593 719h-203l-65 88a94 94 0 0 1-75 37h-157a94 94 0 0 1-75-37l-65-88h-203a16 16 0 0 1-16-16v-31a16 16 0 0 1 16-15h47v-719a94 94 0 0 1 93-94h563a94 94 0 0 1 94 94v719h46a16 16 0 0 1 16 15v31a16 16 0 0 1-16 16z m-525 50a32 32 0 0 0 25 13h157a32 32 0 0 0 25-13l37-50h-281z m416-831a31 31 0 0 0-31-32h-563a31 31 0 0 0-31 32v719h625z m-328 62h31a16 16 0 0 1 16 16v531a16 16 0 0 1-16 16h-31a16 16 0 0 1-16-16v-531a16 16 0 0 1 16-16z" horiz-adv-x="875" />

<glyph glyph-name="cloud-upload" unicode="&#xe81f;" d="M698 545a27 27 0 0 1-38 0l-220-219a27 27 0 0 1 0-38l13-13a27 27 0 0 1 38 0l152 152v-336a27 27 0 0 1 27-27h18a27 27 0 0 1 27 27v336l152-152a27 27 0 0 1 38 0l12 13a27 27 0 0 1 0 38z m578-157a250 250 0 0 1-240 319 247 247 0 0 1-107-24 393 393 0 0 1-714-208 321 321 0 0 1 106-625h822a286 286 0 0 1 133 538z m-133-467h-822a250 250 0 0 0-33 498 307 307 0 0 0-2 38 322 322 0 0 0 619 122 179 179 0 0 0 271-232 214 214 0 0 0-33-426z" horiz-adv-x="1429" />

<glyph glyph-name="vkontakte" unicode="&#xf189;" d="M1070 560q13-36-84-164-13-18-36-48-22-28-31-40t-17-27-7-24 8-19 18-24 32-30q2-1 2-2 79-73 107-123 2-3 4-7t4-15-1-19-14-15-33-7l-142-3q-14-2-32 3t-29 13l-11 6q-17 12-39 36t-38 43-34 33-32 8q-1 0-4-2t-10-8-12-16-9-29-4-44q0-8-2-15t-4-10l-2-3q-10-11-30-12h-64q-40-3-81 9t-74 29-57 37-40 32l-14 14q-5 5-15 17t-40 50-59 85-68 117-73 152q-4 9-4 15t2 9l2 3q9 11 32 11l153 1q7-1 13-3t9-5l3-2q9-6 13-18 11-28 26-57t23-46l9-16q16-34 31-58t27-38 23-22 19-8 15 3q1 1 3 3t7 12 7 26 5 46 0 69q-1 23-5 41t-7 26l-4 6q-14 19-47 24-8 2 3 14 8 10 21 17 29 14 133 13 46-1 75-7 12-3 19-8t12-13 5-18 2-25 0-31-2-40 0-46q0-6-1-23t0-27 2-22 6-22 13-14q4-1 9-2t15 6 21 19 29 38 38 60q33 58 60 125 2 6 5 10t6 6l3 2 2 1t8 2 11 0l160 1q22 3 36-1t17-10z" horiz-adv-x="1071.4" />
</font>
</defs>
</svg>
