<?xml version="1.0" encoding="utf-8"?>
<!-- Generator: Adobe Illustrator 23.0.1, SVG Export Plug-In . SVG Version: 6.00 Build 0)  -->
<svg version="1.1" id="Layer_1" xmlns="http://www.w3.org/2000/svg" xmlns:xlink="http://www.w3.org/1999/xlink" x="0px" y="0px"
	 viewBox="0 0 141.1 90" style="enable-background:new 0 0 141.1 90;" xml:space="preserve">
<style type="text/css">
	.st0{fill:url(#SVGID_1_);}
	.st1{fill:url(#SVGID_2_);}
	.st2{fill:url(#SVGID_3_);}
	.st3{fill-rule:evenodd;clip-rule:evenodd;fill:#313E99;}
</style>
<linearGradient id="SVGID_1_" gradientUnits="userSpaceOnUse" x1="31.16" y1="47.015" x2="110.23" y2="47.015" gradientTransform="matrix(1 0 0 -1 0 92)">
	<stop  offset="0" style="stop-color:#FFA473"/>
	<stop  offset="0.15" style="stop-color:#F6A777"/>
	<stop  offset="0.3" style="stop-color:#DEAE82"/>
	<stop  offset="0.5" style="stop-color:#B6BA93"/>
	<stop  offset="0.72" style="stop-color:#7FCBAC"/>
	<stop  offset="1" style="stop-color:#42DEC7"/>
</linearGradient>
<path class="st0" d="M57.3,8.3l-0.3-1l12-6.9c1.2-0.6,2.5-0.6,3.7,0l12,6.9l-0.3,1L72,1.3c-0.8-0.4-1.8-0.4-2.7,0L57.3,8.3z
	 M109.2,24.3v10.5h1V24.3c-0.1-1.3-0.8-2.5-1.8-3.2l-6.7-3.9l-0.4,1l6.6,3.7C108.6,22.5,109.1,23.4,109.2,24.3L109.2,24.3z
	 M32.2,34.8V24.3c0.1-0.9,0.6-1.8,1.4-2.3l6.6-3.8l-0.4-1L33,21.1c-1.1,0.7-1.8,1.9-1.8,3.2v10.5H32.2z M109.2,55.3v10.4
	c-0.1,0.9-0.6,1.8-1.3,2.3L72,88.7c-0.8,0.4-1.8,0.4-2.7,0L33.6,68c-0.8-0.5-1.3-1.4-1.3-2.3V55.3h-1v10.4c0.1,1.3,0.7,2.5,1.8,3.2
	l35.9,20.7c1.2,0.6,2.5,0.6,3.7,0l35.8-20.7c1.1-0.7,1.8-1.9,1.8-3.2V55.3H109.2z"/>
<linearGradient id="SVGID_2_" gradientUnits="userSpaceOnUse" x1="42.6843" y1="29.8642" x2="63.895" y2="82.386" gradientTransform="matrix(1 0 0 -1 0 92)">
	<stop  offset="0" style="stop-color:#42DEC7"/>
	<stop  offset="0.28" style="stop-color:#7FCBAC"/>
	<stop  offset="0.5" style="stop-color:#B6BA93"/>
	<stop  offset="0.7" style="stop-color:#DEAE82"/>
	<stop  offset="0.85" style="stop-color:#F6A777"/>
	<stop  offset="0.95" style="stop-color:#FFA473"/>
</linearGradient>
<path class="st1" d="M53,26.6c0.9,0.1,1.8,0.4,2.6,0.9c1,0.6,2.1,1,3.3,1.1c0.6,0,1.3-0.1,1.9-0.4l-0.3-0.9c-0.5,0.2-1,0.3-1.5,0.3
	c-1.2-0.1-2.3-0.4-3.3-1.1c-0.8-0.5-1.7-0.8-2.6-0.9c-0.9,0.1-1.8,0.4-2.6,0.9c-0.9,0.6-1.9,0.9-3,1.1l0.4,0.9
	c0.9-0.2,1.8-0.5,2.6-1C51.2,27,52.1,26.7,53,26.6z M50.4,30.5c0.8-0.5,1.7-0.8,2.6-0.9c0.9,0.1,1.8,0.4,2.6,0.9
	c1,0.6,2.1,1,3.3,1.1c1,0,1.9-0.3,2.8-0.8l-0.3-0.8c-0.8,0.4-1.6,0.6-2.5,0.6c-1.2-0.1-2.3-0.4-3.3-1.1c-0.8-0.5-1.7-0.8-2.6-0.9
	c-0.9,0.1-1.8,0.4-2.6,0.9c-0.6,0.4-1.2,0.6-1.9,0.9l0.3,0.9C49.4,31,49.9,30.7,50.4,30.5L50.4,30.5z M50.4,33.5
	c0.8-0.5,1.6-0.9,2.6-0.9c0.9,0.1,1.8,0.4,2.6,0.9c1,0.6,2.1,1,3.3,1.1c1.2-0.1,2.3-0.4,3.3-1.1l0.3-0.2l-0.3-0.8l0,0
	c-1,0.7-2.2,1-3.4,1.1c-1.2-0.1-2.3-0.4-3.3-1.1c-0.8-0.5-1.7-0.8-2.6-0.9c-0.9,0.1-1.8,0.4-2.6,0.9c-0.3,0.2-0.6,0.3-0.9,0.5
	l0.3,0.8L50.4,33.5z M62.2,62.9c0.8-0.5,1.7-0.8,2.6-0.9c0.9,0.1,1.8,0.4,2.6,0.9c0.3,0.2,0.6,0.3,0.9,0.5l0.3-0.8
	c-0.4-0.2-0.8-0.4-1.2-0.6c-0.8-0.5-1.7-0.8-2.6-0.9c-0.9,0.1-1.8,0.4-2.6,0.9c-0.3,0.2-0.7,0.4-1,0.5l0.3,0.8L62.2,62.9z
	 M64.8,58.1c-0.9,0.1-1.8,0.4-2.6,0.9c-0.6,0.4-1.3,0.7-2.1,0.9l0.3,0.9c0.6-0.2,1.2-0.5,1.7-0.8c0.8-0.5,1.7-0.8,2.6-0.9
	c0.9,0.1,1.8,0.4,2.6,0.9c0.6,0.3,1.2,0.6,1.8,0.8l0.3-0.9c-0.8-0.2-1.5-0.5-2.2-0.9C66.6,58.5,65.7,58.2,64.8,58.1L64.8,58.1z
	 M64.8,55.1c-0.9,0.1-1.8,0.4-2.6,0.9c-1,0.6-2,1-3.2,1.1l0.4,1c1-0.1,1.9-0.5,2.8-1c0.8-0.5,1.7-0.8,2.6-0.9
	c0.9,0.1,1.8,0.4,2.6,0.9c0.9,0.5,1.8,0.9,2.8,1l0.3-1c-1.1-0.1-2.2-0.5-3.2-1.1C66.6,55.5,65.7,55.2,64.8,55.1L64.8,55.1z
	 M64.8,67.9c0.6,0,1.2,0.2,1.7,0.5l0.3-0.8c-0.6-0.4-1.3-0.6-2-0.6c-0.6,0-1.2,0.2-1.7,0.4l0.3,0.8C63.9,68.1,64.4,68,64.8,67.9
	L64.8,67.9z M64.8,64.9c0.9,0.1,1.8,0.4,2.6,0.9l0,0l0.3-0.8l-0.3-0.2c-0.8-0.5-1.6-0.7-2.5-0.8c-0.9,0.1-1.8,0.4-2.6,0.9h-0.1
	l0.3,0.8C63.2,65.3,64,65,64.8,64.9L64.8,64.9z M43.8,15.7c1,0.6,2.1,1,3.3,1.1c1.2-0.1,2.3-0.4,3.3-1.1c0.8-0.5,1.7-0.8,2.6-0.9
	c0.9,0.1,1.8,0.4,2.6,0.9c0.3,0.1,0.6,0.3,0.9,0.5L56,14.9l-0.5-0.2c-0.8-0.5-1.6-0.8-2.5-0.9c-0.9,0.1-1.8,0.4-2.6,0.9
	c-1,0.6-2.1,1-3.3,1.1c-1.2-0.1-2.3-0.4-3.3-1.1c-0.5-0.3-1.1-0.5-1.7-0.7l0.4,1.1C43,15.3,43.4,15.5,43.8,15.7z M41.2,5.9
	C42.1,6,43,6.3,43.8,6.8c1,0.6,2.1,1,3.3,1.1c1.2-0.1,2.3-0.4,3.3-1.1c0.7-0.5,1.5-0.8,2.4-0.9l-0.3-1c-0.7,0.2-1.4,0.4-2,0.8
	c-1,0.6-2.1,1-3.3,1.1c-1.2-0.1-2.3-0.4-3.3-1.1C43,5.3,42.2,5,41.2,4.9c-0.8,0-1.6,0.3-2.3,0.8l0.3,0.8C39.8,6.2,40.5,6,41.2,5.9z
	 M47.1,22.7c1.2-0.1,2.3-0.4,3.3-1.1c0.8-0.5,1.7-0.8,2.6-0.9c0.9,0.1,1.8,0.4,2.6,0.9c1,0.6,2.1,1,3.2,1.1l-0.4-1
	c-1-0.2-2-0.5-2.8-1.1c-0.8-0.5-1.7-0.8-2.6-0.9c-0.9,0.1-1.8,0.4-2.6,0.9c-1,0.6-2.1,1-3.3,1.1c-0.7,0-1.4-0.2-2.1-0.5l0.5,1.2
	C46,22.6,46.5,22.7,47.1,22.7L47.1,22.7z M65.9,70.1c-0.4-0.1-0.7-0.2-1.1-0.2c-0.2,0-0.4,0-0.7,0.1l0.4,0.9c0.1,0,0.2,0,0.3,0
	c0.3,0,0.6,0,0.8,0.1L65.9,70.1z M47.1,19.7c1.2-0.1,2.3-0.4,3.3-1.1c0.8-0.5,1.7-0.8,2.6-0.9c0.9,0.1,1.8,0.4,2.6,0.9
	c0.7,0.4,1.4,0.7,2.1,0.9l-0.4-1.1c-0.6-0.2-1.2-0.5-1.7-0.8c-0.8-0.5-1.7-0.8-2.6-0.9c-0.9,0.1-1.8,0.4-2.6,0.9
	c-1,0.6-2.1,1-3.3,1.1c-1.2-0.1-2.3-0.4-3.3-1.1l-0.2-0.1l0.5,1.3C44.9,19.3,46,19.7,47.1,19.7z M50.4,24.5c0.8-0.5,1.7-0.8,2.6-0.9
	c0.9,0.1,1.8,0.4,2.6,0.9c1,0.6,2.1,1,3.3,1.1c0.3,0,0.6,0,0.9-0.1l-0.3-0.9c-0.2,0-0.4,0-0.6,0c-1.2-0.1-2.3-0.4-3.3-1.1
	c-0.8-0.5-1.7-0.8-2.6-0.8c-0.9,0.1-1.8,0.4-2.6,0.9c-1,0.6-2.1,1-3.3,1.1c-0.3,0-0.5,0-0.8-0.1l0.4,1h0.4
	C48.3,25.5,49.4,25.2,50.4,24.5L50.4,24.5z M43.8,9.8c1,0.6,2.1,1,3.3,1.1c1.2-0.1,2.3-0.4,3.3-1.1c0.8-0.5,1.7-0.8,2.6-0.9
	c0.3,0,0.6,0.1,0.9,0.1l-0.4-1c-0.2,0-0.3-0.1-0.5-0.1c-0.9,0.1-1.8,0.4-2.6,0.9c-1,0.6-2.1,1-3.3,1.1c-1.2-0.1-2.3-0.4-3.3-1.1
	C43,8.3,42.1,8,41.2,7.9c-0.5,0-0.9,0.1-1.3,0.3l0.3,0.9c0.3-0.1,0.7-0.2,1-0.2C42.1,9,43,9.3,43.8,9.8z M43.8,12.8
	c1,0.6,2.1,1,3.3,1.1c1.2-0.1,2.3-0.4,3.3-1.1c0.8-0.5,1.7-0.9,2.6-0.9c0.8,0,1.5,0.3,2.2,0.7l-0.4-1.2c-0.5-0.3-1.1-0.4-1.7-0.4
	c-0.9,0.1-1.8,0.4-2.6,0.9c-1,0.6-2.1,1-3.3,1.1c-1.2-0.1-2.3-0.4-3.3-1.1c-0.8-0.5-1.7-0.8-2.6-0.9c-0.1,0-0.2,0-0.3,0l0.4,1
	C42.2,11.9,43,12.2,43.8,12.8L43.8,12.8z"/>
<linearGradient id="SVGID_3_" gradientUnits="userSpaceOnUse" x1="73.1879" y1="80.6108" x2="94.4445" y2="28.0044" gradientTransform="matrix(1 0 0 -1 0 92)">
	<stop  offset="0" style="stop-color:#42DEC7"/>
	<stop  offset="0.28" style="stop-color:#7FCBAC"/>
	<stop  offset="0.5" style="stop-color:#B6BA93"/>
	<stop  offset="0.7" style="stop-color:#DEAE82"/>
	<stop  offset="0.85" style="stop-color:#F6A777"/>
	<stop  offset="1" style="stop-color:#FFA473"/>
</linearGradient>
<path class="st2" d="M91.6,33.7l0.4-0.8c-0.3-0.2-0.6-0.3-0.9-0.5c-1.5-1.2-3.6-1.2-5.2,0c-1,0.6-2.1,1-3.3,1.1
	c-1.2-0.1-2.3-0.4-3.3-1L79,33.3l0.2,0.1c2,1.4,4.7,1.4,6.7,0c1.5-1.2,3.6-1.2,5.2,0L91.6,33.7z M91,6.8c2,1.4,4.7,1.4,6.7,0
	c0.8-0.5,1.7-0.8,2.6-0.9c0.7,0,1.4,0.2,2,0.6l0.3-0.8c-0.7-0.4-1.5-0.7-2.3-0.8c-0.9,0.1-1.8,0.4-2.6,0.9c-1,0.6-2.1,1-3.3,1.1
	C93.2,6.8,92,6.5,91,5.8c-0.6-0.4-1.3-0.7-2-0.8l-0.3,0.9C89.5,6.1,90.3,6.4,91,6.8z M77.1,71l0.4-0.9C77.2,70,76.9,70,76.6,70
	c-0.9,0.1-1.8,0.4-2.6,0.9c-2,1.4-4.7,1.4-6.7,0c-0.5-0.3-0.9-0.5-1.4-0.7l-0.3,0.9c0.6,0.2,1.2,0.4,1.8,0.8c0.9,0.6,1.9,0.9,3,1.1
	H71c1.1-0.1,2.1-0.5,3-1.1c0.8-0.5,1.7-0.8,2.6-0.9C76.8,70.9,76.9,71,77.1,71z M93,30.3c-0.7-0.2-1.4-0.5-2-0.9
	c-1.5-1.2-3.6-1.2-5.2,0c-1,0.6-2.1,1-3.3,1.1c-0.8,0-1.6-0.2-2.4-0.6l-0.3,0.8c0.8,0.5,1.7,0.7,2.7,0.7c1.2-0.1,2.3-0.4,3.3-1.1
	c1.5-1.2,3.6-1.2,5.2,0c0.5,0.3,1,0.5,1.6,0.8L93,30.3z M94.8,25.6l0.4-1c-0.3,0.1-0.6,0.1-0.9,0.1c-1.2-0.1-2.4-0.5-3.4-1.1
	c-1.5-1.2-3.6-1.2-5.2,0c-1,0.6-2.1,1-3.3,1.1H82l-0.3,0.9c0.3,0.1,0.6,0.1,0.8,0.1c1.2-0.1,2.3-0.4,3.3-1.1c1.5-1.2,3.6-1.2,5.2,0
	c1,0.6,2.1,1,3.3,1.1L94.8,25.6z M67.4,68.8c2,1.4,4.7,1.4,6.7,0c0.8-0.5,1.7-0.8,2.6-0.8c0.5,0,1,0.1,1.5,0.4l0.3-0.8
	c-0.6-0.3-1.2-0.5-1.8-0.5c-0.9,0.1-1.8,0.4-2.6,0.9c-2,1.4-4.7,1.4-6.7,0l-0.5-0.3l-0.3,0.8L67.4,68.8z M79.4,65l-0.2-0.1
	c-1.5-1.2-3.6-1.2-5.2,0c-1,0.6-2.1,1-3.3,1.1c-1.1,0-2.1-0.3-3-0.9l-0.3,0.8c1,0.6,2.1,1,3.3,1.1c1.2-0.1,2.3-0.4,3.3-1.1
	c0.8-0.5,1.7-0.8,2.6-0.9c0.9,0.1,1.7,0.3,2.5,0.8L79.4,65z M81.4,59.9c-0.8-0.2-1.5-0.5-2.2-0.9c-1.5-1.2-3.6-1.2-5.2,0
	c-1,0.6-2.1,1-3.3,1.1c-0.4,0-0.8-0.1-1.2-0.2l-0.3,0.9c0.5,0.2,1,0.2,1.5,0.2c1.2-0.1,2.3-0.4,3.3-1.1c1.5-1.2,3.6-1.2,5.2,0
	c0.6,0.3,1.2,0.6,1.9,0.8L81.4,59.9z M80.4,62.6c-0.4-0.2-0.8-0.4-1.2-0.6c-1.5-1.2-3.6-1.2-5.2,0c-1,0.6-2.1,1-3.3,1
	c-0.7,0-1.4-0.2-2.1-0.5l-0.3,0.8c0.7,0.4,1.6,0.6,2.4,0.6c1.2-0.1,2.3-0.4,3.3-1.1c0.8-0.5,1.7-0.8,2.6-0.9
	c0.9,0.1,1.8,0.4,2.6,0.9c0.3,0.2,0.6,0.3,0.9,0.5L80.4,62.6z M94,27.6c-1.1-0.1-2.1-0.5-3-1.1c-1.5-1.2-3.6-1.2-5.2,0
	c-1,0.6-2.1,1-3.3,1.1c-0.5,0-1-0.1-1.5-0.2l-0.3,0.9c0.6,0.2,1.2,0.3,1.8,0.3c1.2-0.1,2.3-0.4,3.3-1.1c1.5-1.2,3.6-1.2,5.2,0
	c0.8,0.5,1.7,0.8,2.7,1L94,27.6z M70.7,58.1c1.2-0.1,2.3-0.5,3.3-1.1c1.5-1.2,3.6-1.2,5.2,0c0.9,0.6,1.9,0.9,2.9,1.1l0.4-1
	c-1.2-0.1-2.3-0.4-3.3-1.1c-1.5-1.2-3.6-1.2-5.2,0c-1,0.6-2.1,1-3.3,1.1h-0.2l-0.3,1C70.4,58.1,70.5,58.1,70.7,58.1z M98,17.5
	l-0.3,0.1c-2,1.4-4.7,1.4-6.7,0c-1.5-1.2-3.6-1.2-5.2,0c-0.5,0.3-1.1,0.6-1.7,0.8l-0.4,1.1c0.7-0.2,1.4-0.5,2-0.9
	c1.5-1.2,3.6-1.2,5.2,0c1,0.6,2.1,1,3.3,1.1c1.1-0.1,2.2-0.4,3.1-1L98,17.5z M96.6,21.2c-0.7,0.3-1.4,0.5-2.2,0.5
	c-1.2-0.1-2.4-0.4-3.4-1.1c-1.5-1.2-3.6-1.2-5.2,0c-0.9,0.5-1.8,0.9-2.8,1l-0.4,1c1.1-0.1,2.2-0.5,3.2-1.1c1.5-1.2,3.6-1.2,5.2,0
	c1,0.6,2.1,1,3.3,1.1c0.6,0,1.2-0.1,1.7-0.3L96.6,21.2z M101.6,8.2c-0.4-0.2-0.9-0.3-1.3-0.3c-0.9,0.1-1.8,0.4-2.6,0.9
	c-2,1.4-4.7,1.4-6.7,0c-0.8-0.5-1.7-0.8-2.6-0.9c-0.2,0-0.3,0-0.5,0.1l-0.4,1c0.3-0.1,0.6-0.1,0.9-0.1c0.9,0.1,1.8,0.4,2.5,0.9
	c2,1.4,4.7,1.4,6.7,0c0.8-0.5,1.7-0.8,2.6-0.9c0.3,0,0.7,0.1,1,0.2L101.6,8.2z M99.4,14c-0.6,0.2-1.1,0.4-1.7,0.8
	c-2,1.4-4.7,1.4-6.7,0c-1.5-1.2-3.6-1.2-5.2,0l-0.4,0.2L85,16.1c0.3-0.1,0.6-0.3,0.8-0.4c1.5-1.2,3.6-1.2,5.2,0c2,1.4,4.7,1.4,6.7,0
	c0.4-0.2,0.8-0.4,1.2-0.6L99.4,14z M100.6,10.9c-0.1,0-0.2,0-0.3,0c-0.9,0.1-1.8,0.4-2.6,0.9c-2,1.4-4.7,1.4-6.7,0
	c-0.8-0.5-1.7-0.8-2.6-0.9c-0.6,0-1.2,0.2-1.7,0.4l-0.4,1.2c0.6-0.4,1.4-0.6,2.1-0.6c0.9,0.1,1.8,0.4,2.6,0.9c2,1.4,4.7,1.4,6.7,0
	c0.7-0.5,1.6-0.8,2.5-0.9L100.6,10.9z"/>
<path class="st3" d="M135.2,50l-3.4-4.5H131V47c0,0.7,0,1.1,0.1,1.3c0.1,0.2,0.3,0.4,0.5,0.4c0.3,0.1,0.6,0.1,0.9,0.1V50h-5.7v-1.3
	c0.5,0,0.8-0.1,1-0.2c0.2-0.1,0.3-0.5,0.3-1.1v-5.2c0-0.5-0.1-0.8-0.2-1c-0.1-0.1-0.2-0.2-0.4-0.2c-0.2-0.1-0.4-0.1-0.8-0.1v-1.3
	h5.8c1.7,0,3,0.2,3.8,0.7c0.8,0.4,1.2,1.1,1.2,2.1c0,0.7-0.3,1.3-0.8,1.9c-0.5,0.5-1.1,0.8-1.8,0.9l1.9,2.4l0.3,0.4
	c0.2,0.3,0.5,0.5,0.8,0.6c0.3,0.1,0.6,0.2,0.8,0.2V50H135.2z M133.9,41.5c-0.4-0.3-1-0.4-1.7-0.4h-0.3c-0.4,0-0.7,0.1-0.8,0.2
	c-0.1,0.2-0.2,0.4-0.2,0.7v2.1h1.1c0.7,0,1.3-0.1,1.8-0.4c0.5-0.3,0.7-0.7,0.7-1.2C134.6,42.1,134.4,41.8,133.9,41.5z M119.5,47.7
	c0,0.4,0.1,0.6,0.3,0.7c0.2,0.1,0.5,0.1,0.8,0.1c2,0,3.6-0.9,4.8-2.8l1.1,0.5l-1.7,3.6h-9.5v-1.3c0.4,0,0.8-0.1,1-0.2
	c0.2-0.2,0.4-0.5,0.4-1.1v-5.2v-0.1c0-0.5-0.1-0.8-0.4-1c-0.2-0.2-0.6-0.2-0.9-0.2h0v-1.3h9.2l1.6,3.2l-1.1,0.5
	c-0.4-0.6-1-1.2-1.6-1.6c-0.6-0.4-1.4-0.7-2.4-0.7c-0.6,0-0.9,0-1.1,0.1c-0.1,0.1-0.2,0.2-0.3,0.3c-0.1,0.2-0.1,0.4-0.1,0.6v1.5h1
	c0.4,0,0.7-0.2,0.9-0.5c0.1-0.3,0.2-0.7,0.2-1.1h1.2v4.7h-1.2c-0.1-0.6-0.2-1-0.4-1.3c-0.2-0.3-0.5-0.4-1.1-0.4h-0.6v2.4V47.7z
	 M112.7,41.6c-0.5-0.4-0.9-0.6-1.4-0.6c-0.1,0-0.2,0-0.2,0.1c-0.1,0-0.1,0.1-0.1,0.3v0.3v5.8c0,0.5,0.1,0.8,0.3,1
	c0.2,0.1,0.6,0.2,1.2,0.2V50h-5.8v-1.3c0.5,0,0.8-0.1,1.1-0.2c0.3-0.1,0.4-0.5,0.4-1v-0.1v-5.7c0-0.2,0-0.4,0-0.5
	c0-0.1-0.1-0.2-0.3-0.2c-1,0-1.9,0.7-2.8,2.2l-1.1-0.4l1.3-3.1h8.7l1.3,3.1l-1.1,0.4C113.6,42.5,113.2,42,112.7,41.6z M104.7,48.8
	V50H99v-1.3c0.5,0,0.8-0.1,1-0.1c0.2-0.1,0.3-0.2,0.3-0.4c0-0.1,0-0.3-0.1-0.5l-0.5-1.4h-3.3l-0.5,1.2c-0.1,0.2-0.1,0.4-0.1,0.6
	c0,0.3,0.5,0.5,1.4,0.6V50h-4.3h-0.6h-3.1l-3.4-4.5h-0.9V47c0,0.7,0,1.1,0.1,1.3c0.1,0.2,0.3,0.4,0.5,0.4c0.3,0.1,0.6,0.1,0.9,0.1
	V50h-5.7v-1.3c0.5,0,0.8-0.1,1-0.2c0.2-0.1,0.3-0.5,0.3-1.1v-5.2c0-0.5-0.1-0.8-0.2-1c-0.1-0.1-0.2-0.2-0.4-0.2
	c-0.2-0.1-0.4-0.1-0.8-0.1v-1.3h5.8c1.7,0,3,0.2,3.8,0.7c0.8,0.4,1.2,1.1,1.2,2.1c0,0.7-0.3,1.3-0.8,1.9c-0.5,0.5-1.1,0.8-1.8,0.9
	l1.9,2.4l0.3,0.4c0.2,0.3,0.5,0.5,0.8,0.6c0.2,0.1,0.4,0.1,0.6,0.1c0.3-0.1,0.5-0.2,0.8-0.3c0.3-0.2,0.6-0.7,0.9-1.3l3.2-7.4h2.4
	l3.3,7.7c0.2,0.5,0.4,0.8,0.5,1c0.1,0.1,0.3,0.2,0.5,0.3C104.3,48.7,104.5,48.7,104.7,48.8z M87.8,41.5c-0.4-0.3-1-0.4-1.7-0.4h-0.3
	c-0.4,0-0.7,0.1-0.8,0.2c-0.1,0.2-0.2,0.4-0.2,0.7v2.1h1.1c0.7,0,1.3-0.1,1.8-0.4c0.5-0.3,0.7-0.7,0.7-1.2
	C88.4,42.1,88.2,41.8,87.8,41.5z M97.9,42.1l-1.2,3h2.3L97.9,42.1z M73.4,47.7c0,0.4,0.1,0.6,0.3,0.7c0.2,0.1,0.5,0.1,0.8,0.1
	c2,0,3.6-0.9,4.8-2.8l1.1,0.5L78.7,50h-9.5v-1.3c0.4,0,0.8-0.1,1-0.2c0.2-0.2,0.4-0.5,0.4-1.1v-5.2v-0.1c0-0.5-0.1-0.8-0.4-1
	c-0.2-0.2-0.6-0.2-0.9-0.2h0v-1.3h9.2l1.6,3.2l-1.1,0.5c-0.4-0.6-1-1.2-1.6-1.6c-0.6-0.4-1.4-0.7-2.4-0.7c-0.6,0-0.9,0-1.1,0.1
	c-0.1,0.1-0.2,0.2-0.3,0.3c-0.1,0.2-0.1,0.4-0.1,0.6v1.5h1c0.4,0,0.7-0.2,0.9-0.5c0.1-0.3,0.2-0.7,0.2-1.1h1.2v4.7h-1.2
	c-0.1-0.6-0.2-1-0.4-1.3c-0.2-0.3-0.5-0.4-1.1-0.4h-0.6v2.4V47.7z M67.5,49.2c-0.7,0.5-1.6,0.8-2.8,0.8h-6.8v-1.3
	c0.2,0,0.4-0.1,0.7-0.1s0.4-0.1,0.5-0.2c0.1,0,0.1-0.1,0.1-0.3c0-0.1,0-0.4,0-0.7v-5.2c0-0.4,0-0.7-0.1-0.9
	c-0.1-0.1-0.2-0.2-0.3-0.3c-0.2-0.1-0.5-0.1-0.9-0.2v-1.3h5.9c1.4,0,2.5,0.2,3.2,0.6c0.7,0.4,1.1,1,1.1,1.9c0,0.6-0.2,1.1-0.5,1.5
	c-0.3,0.4-0.7,0.6-1,0.8c1.3,0.4,2,1.2,2,2.6C68.6,48,68.2,48.7,67.5,49.2z M63.2,41.1c-0.4,0-0.6,0-0.9,0.1
	c-0.2,0.1-0.3,0.2-0.3,0.6V42v1.7h1.2c1.4,0,2.1-0.5,2.1-1.4C65.3,41.5,64.6,41.1,63.2,41.1z M65.1,45.6c-0.3-0.3-0.9-0.4-1.8-0.4
	H62v2.7c0,0.3,0.1,0.5,0.3,0.6c0.2,0.1,0.5,0.2,1,0.2c1.5,0,2.3-0.6,2.3-1.8C65.6,46.3,65.5,45.8,65.1,45.6z M51.6,48.8L51.6,48.8
	c0.5,0,0.8-0.1,1.1-0.2c0.2-0.1,0.4-0.4,0.4-0.9v-0.1v-5.3L50.4,50h-1.8L46,42v5.6v0.1c0,0.5,0.1,0.8,0.4,0.9
	c0.2,0.1,0.6,0.2,1.1,0.2V50h-4.4v-1.3c0.4,0,0.7-0.1,1-0.2c0.3-0.1,0.4-0.5,0.4-1v-0.1v-5.2v-0.1c0-0.5-0.1-0.8-0.4-1
	c-0.2-0.1-0.6-0.2-1-0.2v-1.3H48l2.1,6.5l2.2-6.5h5v1.3c-0.2,0-0.5,0.1-0.9,0.2c-0.4,0.1-0.6,0.4-0.6,1v0.2v5.2c0,0.3,0,0.5,0.1,0.7
	c0.1,0.2,0.2,0.4,0.6,0.5c0.3,0.1,0.6,0.1,0.8,0.1V50h-5.7V48.8z M41.2,42.3v0.2v3.9v0.2c0,1.4-0.4,2.4-1.1,2.9
	c-0.7,0.5-1.8,0.8-3.2,0.8c-2.8,0-4.2-1.1-4.2-3.4v-4.7v-0.1c0-0.5-0.1-0.8-0.4-1c-0.2-0.1-0.6-0.2-1-0.2v-1.3h5.5v1.3
	c-0.5,0-0.9,0.1-1.1,0.2c-0.2,0.2-0.3,0.5-0.3,0.9v4.5c0,0.7,0.2,1.2,0.6,1.6c0.4,0.4,0.8,0.5,1.4,0.5c1.5,0,2.3-0.7,2.3-2.2v-4.1
	c0-0.6-0.1-1-0.2-1.1c-0.1-0.1-0.2-0.2-0.4-0.3c-0.2-0.1-0.5-0.1-0.8-0.2v-1.3h4.3v1.3c-0.6,0.1-1,0.2-1.2,0.4
	C41.3,41.5,41.2,41.8,41.2,42.3z M26.3,50.3c-1.2,0-2.1-0.3-2.8-0.8l-0.2,0.7h-1L21,46.4l1.2-0.4c1,1.8,2.4,2.8,4.1,2.8
	c0.6,0,1.1-0.1,1.5-0.3c0.4-0.2,0.6-0.6,0.6-1c0-0.3-0.1-0.5-0.4-0.6c-0.2-0.2-0.7-0.3-1.4-0.5l-1.9-0.4c-1.3-0.3-2.2-0.7-2.7-1.2
	c-0.5-0.5-0.7-1.1-0.7-1.9c0-1,0.4-1.8,1.2-2.4c0.8-0.6,1.7-0.9,2.8-0.9c1,0,1.8,0.2,2.6,0.7l0.2-0.5h1l1,3.1L29,43.1
	c-1-1.5-2.2-2.2-3.5-2.2c-0.5,0-0.9,0.1-1.2,0.3c-0.3,0.2-0.5,0.5-0.5,0.8c0,0.2,0.1,0.4,0.3,0.6c0.2,0.1,0.6,0.3,1.2,0.4l2.5,0.6
	c1.2,0.3,2,0.7,2.4,1.1c0.4,0.5,0.6,1.1,0.6,1.8c0,1.1-0.4,2-1.3,2.7C28.6,49.9,27.5,50.3,26.3,50.3z M14.7,48.8
	c0.4,0,0.8-0.1,1-0.2c0.2-0.1,0.4-0.5,0.4-1v-0.1v-5.2v-0.2c0-0.6-0.2-0.9-0.5-1c-0.3-0.1-0.6-0.2-0.8-0.2v-1.3h5.5v1.3
	c-0.4,0-0.7,0.1-1,0.2c-0.2,0.1-0.4,0.4-0.4,0.9v0.1v5.5v0.1c0,0.4,0.1,0.7,0.3,0.9c0.2,0.1,0.6,0.2,1,0.2V50h-5.5V48.8z M13.5,41.3
	c-0.3,0.2-0.5,0.6-0.7,1.2l-3,7.5H7.6l-3.2-8c-0.2-0.5-0.4-0.8-0.7-0.9c-0.2-0.1-0.6-0.2-1.1-0.2v-1.3h5.8v1.3
	c-0.9,0-1.3,0.2-1.3,0.5c0,0.1,0,0.3,0.1,0.5l2,5.3l1.9-5.2c0.1-0.2,0.1-0.4,0.1-0.6c0-0.3-0.4-0.5-1.2-0.6v-1.3h4.5v1.3
	C14.1,40.9,13.8,41.1,13.5,41.3z"/>
</svg>
