<?xml version="1.0" encoding="utf-8"?>
<!-- Generator: Adobe Illustrator 22.0.0, SVG Export Plug-In . SVG Version: 6.00 Build 0)  -->
<svg version="1.1" id="Capa_1" xmlns="http://www.w3.org/2000/svg" xmlns:xlink="http://www.w3.org/1999/xlink" x="0px" y="0px"
	 viewBox="0 0 275.6 275.6" style="enable-background:new 0 0 275.6 275.6;" xml:space="preserve">
<style type="text/css">
	.st0{fill:#808080;}
	.st1{fill:#FFFFFF;stroke:#808080;stroke-width:11;stroke-miterlimit:10;}
</style>
<g>
	<path class="st0" d="M262.4,48.2h-12.3v15.7c0,15.3-13.4,27.8-30,27.8c-16.6,0-30-12.5-30-27.8V48.2h-22.3v15.7
		c0,15.3-13.4,27.8-30,27.8c-16.6,0-30-12.5-30-27.8V48.2H85.5v15.7c0,15.3-13.4,27.8-30,27.8c-16.6,0-30-12.5-30-27.8V48.2H13.1
		c-5.5,0-10,4.2-10,9.3v208.8c0,5.1,4.5,9.3,10,9.3h249.3c5.5,0,10-4.2,10-9.3V57.5C272.4,52.4,268,48.2,262.4,48.2z M252.4,257
		H23.1V116.6h229.3V257z"/>
	<rect x="23.1" y="90" class="st1" width="229.3" height="167"/>
	<path class="st0" d="M108.4,237.8c1.1,0.6,2.3,0.8,3.4,0.8c2.7,0,5.4-1.5,6.7-4.1l51.7-101.6c1.9-3.7,0.4-8.2-3.3-10.1
		c-3.7-1.9-8.2-0.4-10.1,3.3l-51.7,101.7C103.2,231.4,104.7,235.9,108.4,237.8z"/>
	<path class="st0" d="M98.7,172.6c10.7,0,19.4-8.7,19.4-19.4c0-10.7-8.7-19.4-19.4-19.4s-19.4,8.7-19.4,19.4
		C79.3,163.9,88,172.6,98.7,172.6z M98.7,144.6c4.7,0,8.6,3.9,8.6,8.6c0,4.7-3.9,8.6-8.6,8.6c-4.7,0-8.6-3.9-8.6-8.6
		C90.1,148.5,93.9,144.6,98.7,144.6z"/>
	<path class="st0" d="M152.5,201.3c0,10.7,8.7,19.4,19.4,19.4c10.7,0,19.4-8.7,19.4-19.4c0-10.7-8.7-19.4-19.4-19.4
		C161.2,181.9,152.5,190.6,152.5,201.3z M171.9,192.7c4.7,0,8.6,3.9,8.6,8.6c0,4.7-3.9,8.6-8.6,8.6c-4.7,0-8.6-3.9-8.6-8.6
		C163.3,196.6,167.2,192.7,171.9,192.7z"/>
	<path class="st0" d="M207.8,79.5c8.3,0,15-6.7,15-15V32c0-8.3-6.7-15-15-15s-15,6.7-15,15v32.5C192.8,72.7,199.5,79.5,207.8,79.5z"
		/>
	<path class="st0" d="M58.5,79.5c8.3,0,15-6.7,15-15V32c0-8.3-6.7-15-15-15s-15,6.7-15,15v32.5C43.5,72.7,50.2,79.5,58.5,79.5z"/>
</g>
<rect x="3.1" y="47.6" class="st0" width="269.3" height="53.4"/>
</svg>
