<svg height="16" viewBox="0 0 16 16" width="16" xmlns="http://www.w3.org/2000/svg"><path d="m7.374 0c1.802 0 3.125.243 3.971.728.846.486 1.269 1.324 1.269 2.514 0 1.05-.349 1.939-1.046 2.667s-1.586 1.226-2.667 1.492c1.081 0 2.021.274 2.82.822.987.674 1.48 1.629 1.48 2.867 0 1.676-.705 2.999-2.115 3.97-.61.423-1.401.697-2.372.823-.596.078-1.457.117-2.585.117h-3.36v-16zm-1.527 7.072c.642 0 1.175-.027 1.598-.082s.861-.192 1.315-.411c1.207-.564 1.81-1.512 1.81-2.843 0-1.05-.337-1.79-1.011-2.22-.673-.431-1.668-.647-2.984-.647h-1.738v6.203zm1.222 8.059c1.159 0 2.107-.337 2.843-1.011.736-.673 1.104-1.55 1.104-2.631 0-1.316-.454-2.255-1.363-2.819-.767-.486-1.934-.729-3.5-.729h-1.316v7.19z"/></svg>