<svg xmlns="http://www.w3.org/2000/svg" width="84.933" height="58.823" viewBox="0 0 84.933 58.823">
  <g id="левые" transform="translate(84.933 50.678) rotate(167)">
    <path id="Path_5465" data-name="Path 5465" d="M0,48.69l1.269-3.964q10.12-1.777,15.363-5.519A18.527,18.527,0,0,0,23.756,29.6q1.082-3.38.549-5a2.79,2.79,0,0,0-1.7-2,12.163,12.163,0,0,0-3.612-.347,13.331,13.331,0,0,1-4.2-.536,10.227,10.227,0,0,1-6.157-5.288,10.4,10.4,0,0,1-.681-8.229,11.361,11.361,0,0,1,2.387-4.17,11.07,11.07,0,0,1,3.89-2.8A15.167,15.167,0,0,1,19.141.039a13.808,13.808,0,0,1,5.3.644,14.7,14.7,0,0,1,5.816,3.563,19.786,19.786,0,0,1,4.164,5.948A21.718,21.718,0,0,1,35.265,26a29.872,29.872,0,0,1-4.791,9.146,31.775,31.775,0,0,1-7.716,7.16,37.678,37.678,0,0,1-10.325,4.7A43.588,43.588,0,0,1,0,48.69Z" transform="translate(36.825 11.823)" fill="#eaeaeb"/>
    <path id="Path_5466" data-name="Path 5466" d="M0,48.393l1.174-3.668A71.648,71.648,0,0,0,11.208,41.95a27.17,27.17,0,0,0,6.49-3.343,15.619,15.619,0,0,0,4-4.14A22.962,22.962,0,0,0,24.144,29.1a6.969,6.969,0,0,0,.263-4.61,3.194,3.194,0,0,0-1.853-2.049,10.667,10.667,0,0,0-3.561-.252,12.73,12.73,0,0,1-4.588-.579A10.387,10.387,0,0,1,8.423,16.54a9.785,9.785,0,0,1-.8-8.106,10.692,10.692,0,0,1,2.462-4.147A13.836,13.836,0,0,1,14.09,1.365,13.569,13.569,0,0,1,19.047.038,14.191,14.191,0,0,1,24.49.729,14.741,14.741,0,0,1,30.257,4.2,18.08,18.08,0,0,1,34.3,10.02a22.863,22.863,0,0,1,1.84,7.389,20.994,20.994,0,0,1-1.021,8.248A31.615,31.615,0,0,1,30.233,35.1,31.318,31.318,0,0,1,22.472,42.4a35.405,35.405,0,0,1-10.206,4.58A41.71,41.71,0,0,1,0,48.393Z" transform="translate(0 0)" fill="#eaeaeb"/>
  </g>
</svg>
