<svg xmlns="http://www.w3.org/2000/svg" width="84.932" height="58.823" viewBox="0 0 84.932 58.823">
  <g id="правые" transform="translate(-160.691 -245.334) rotate(-13)">
    <path id="Path_5465" data-name="Path 5465" d="M116.647,337.308l1.269-3.964q10.12-1.777,15.363-5.519a18.527,18.527,0,0,0,7.124-9.612q1.082-3.38.549-5a2.79,2.79,0,0,0-1.7-2,12.162,12.162,0,0,0-3.612-.347,13.331,13.331,0,0,1-4.2-.536,10.227,10.227,0,0,1-6.156-5.288,10.4,10.4,0,0,1-.681-8.229,11.362,11.362,0,0,1,2.387-4.17,11.07,11.07,0,0,1,3.89-2.8,15.167,15.167,0,0,1,4.909-1.18,13.808,13.808,0,0,1,5.3.644,14.7,14.7,0,0,1,5.816,3.563,19.786,19.786,0,0,1,4.164,5.948,21.718,21.718,0,0,1,.847,15.8,29.873,29.873,0,0,1-4.791,9.146,31.776,31.776,0,0,1-7.716,7.16,37.676,37.676,0,0,1-10.325,4.7A43.587,43.587,0,0,1,116.647,337.308Z" transform="translate(19.73 6.334)" fill="#eaeaeb"/>
    <path id="Path_5466" data-name="Path 5466" d="M99.552,331.523l1.174-3.668a71.647,71.647,0,0,0,10.034-2.774,27.169,27.169,0,0,0,6.49-3.343,15.619,15.619,0,0,0,4-4.14,22.963,22.963,0,0,0,2.447-5.366,6.969,6.969,0,0,0,.263-4.61,3.194,3.194,0,0,0-1.853-2.049,10.666,10.666,0,0,0-3.561-.252,12.729,12.729,0,0,1-4.588-.579,10.387,10.387,0,0,1-5.982-5.071,9.785,9.785,0,0,1-.8-8.106,10.692,10.692,0,0,1,2.462-4.147,13.836,13.836,0,0,1,4.009-2.923,13.569,13.569,0,0,1,4.957-1.327,14.191,14.191,0,0,1,5.443.691,14.74,14.74,0,0,1,5.767,3.466,18.079,18.079,0,0,1,4.043,5.825,22.863,22.863,0,0,1,1.84,7.389,20.994,20.994,0,0,1-1.021,8.248,31.647,31.647,0,0,1-12.647,16.746,35.4,35.4,0,0,1-10.206,4.58A41.709,41.709,0,0,1,99.552,331.523Z" transform="translate(0 0)" fill="#eaeaeb"/>
  </g>
</svg>
